<svg width="212" height="41" viewBox="0 0 212 41" fill="none" xmlns="http://www.w3.org/2000/svg">
    <path
        d="M0 8.5C0 4.08172 3.58172 0.5 8 0.5H32C36.4183 0.5 40 4.08172 40 8.5V32.5C40 36.9183 36.4183 40.5 32 40.5H8C3.58172 40.5 0 36.9183 0 32.5V8.5Z"
        fill="#0F172B" />
    <path
        d="M12.8 29.029V12.1H19.2691C21.212 12.1 22.7528 12.5709 23.8917 13.5128C25.0306 14.4463 25.6 15.8297 25.6 17.6631C25.6 19.488 25.0306 20.8757 23.8917 21.826C22.7528 22.7679 21.212 23.2388 19.2691 23.2388H16.8448V29.029H12.8ZM16.8448 19.7067H19.2691C19.9977 19.7067 20.5462 19.5049 20.9147 19.1012C21.2915 18.6891 21.4799 18.2097 21.4799 17.6631C21.4799 17.108 21.2915 16.6245 20.9147 16.2124C20.5462 15.8003 19.9977 15.5943 19.2691 15.5943H16.8448V19.7067Z"
        fill="white" />
    <path
        d="M208.274 40.5C207.281 40.5 206.35 40.3223 205.484 39.9669C204.627 39.6115 203.935 39.0575 203.407 38.3049C202.889 37.5419 202.63 36.5646 202.63 35.373V20.6507H207.735V35.1849C207.735 36.1256 208.205 36.596 209.146 36.596C209.442 36.596 209.754 36.5646 210.082 36.5019C210.42 36.4287 210.811 36.3137 211.255 36.157L212 39.6533C211.355 39.8833 210.737 40.0819 210.145 40.2491C209.564 40.4163 208.94 40.5 208.274 40.5ZM200.775 27.8002V24.5547H211.287V27.8002H200.775Z"
        fill="#0F172B" />
    <path
        d="M189.032 39.9983V24.4607H194.106V39.9983H189.032ZM193.028 33.4132C193.028 31.3123 193.297 29.5876 193.836 28.2392C194.375 26.8909 195.057 25.8927 195.882 25.2446C196.706 24.5965 197.546 24.2725 198.403 24.2725C198.572 24.2725 198.741 24.283 198.91 24.3039C199.079 24.3143 199.238 24.3352 199.386 24.3666L199.433 29.4151C199.169 29.3838 198.899 29.3629 198.625 29.3524C198.35 29.3315 198.091 29.3211 197.848 29.3211C197.108 29.3211 196.452 29.457 195.882 29.7287C195.321 30.0005 194.883 30.4343 194.566 31.0301C194.259 31.6258 194.106 32.4202 194.106 33.4132H193.028Z"
        fill="#0F172B" />
    <path
        d="M179.58 39.9983L178.93 35.8748V30.0893C178.93 29.3159 178.787 28.7148 178.501 28.2863C178.216 27.8577 177.608 27.6435 176.678 27.6435C176.128 27.6435 175.679 27.7271 175.33 27.8943C174.992 28.0511 174.738 28.2654 174.569 28.5372C174.411 28.7985 174.332 29.0859 174.332 29.3995H168.846C168.846 28.187 169.136 27.1888 169.718 26.4048C170.299 25.6105 171.171 25.0199 172.334 24.6332C173.496 24.2464 174.945 24.053 176.678 24.053C178.19 24.053 179.49 24.283 180.578 24.7429C181.678 25.2028 182.523 25.8927 183.115 26.8125C183.707 27.7323 184.003 28.8873 184.003 30.2775V39.9983H179.58ZM174.664 40.5C173.269 40.5 172.091 40.2701 171.129 39.8102C170.177 39.3398 169.459 38.7074 168.972 37.913C168.486 37.1186 168.243 36.2406 168.243 35.279C168.243 34.3696 168.497 33.5857 169.004 32.9272C169.512 32.2582 170.262 31.7408 171.256 31.375C172.26 31.0092 173.491 30.8262 174.95 30.8262C175.838 30.8262 176.62 30.8733 177.296 30.9674C177.983 31.0614 178.686 31.1764 179.405 31.3123V34.1345C178.877 34.0195 178.327 33.9306 177.756 33.8679C177.196 33.8052 176.646 33.7738 176.107 33.7738C175.357 33.7738 174.76 33.8941 174.316 34.1345C173.882 34.3644 173.666 34.7459 173.666 35.279C173.666 35.6657 173.861 36.0055 174.252 36.2981C174.643 36.5803 175.262 36.7214 176.107 36.7214C176.826 36.7214 177.392 36.5803 177.804 36.2981C178.216 36.0159 178.507 35.6605 178.676 35.232C178.845 34.8034 178.93 34.3801 178.93 33.962H180.119C180.119 35.1536 179.928 36.2459 179.548 37.2388C179.167 38.2318 178.575 39.0262 177.772 39.622C176.969 40.2074 175.933 40.5 174.664 40.5Z"
        fill="#0F172B" />
    <path
        d="M159.272 39.9983V30.9987C159.272 30.1834 159.072 29.5824 158.67 29.1957C158.279 28.7985 157.787 28.5999 157.195 28.5999C156.329 28.5999 155.62 28.9709 155.071 29.7131C154.521 30.4447 154.246 31.7043 154.246 33.4916H152.249C152.249 31.6415 152.418 30.1103 152.756 28.8978C153.094 27.6748 153.559 26.7132 154.151 26.0129C154.743 25.3021 155.42 24.8004 156.181 24.5077C156.952 24.2046 157.771 24.053 158.638 24.053C159.97 24.053 161.059 24.3509 161.904 24.9467C162.761 25.5425 163.389 26.363 163.791 27.4083C164.203 28.4535 164.409 29.6503 164.409 30.9987V39.9983H159.272ZM138.803 39.9983V24.5548H143.275L143.814 26.7341C144.353 25.8038 145.024 25.1244 145.827 24.6959C146.641 24.2673 147.524 24.053 148.475 24.053C149.817 24.053 150.911 24.3509 151.757 24.9467C152.613 25.5425 153.242 26.363 153.644 27.4083C154.046 28.4535 154.246 29.6503 154.246 30.9987V39.9983H149.141V30.9987C149.141 30.1834 148.94 29.5824 148.539 29.1957C148.137 28.7985 147.651 28.5999 147.08 28.5999C146.498 28.5999 145.965 28.7619 145.478 29.0859C144.992 29.4099 144.601 29.9326 144.305 30.6538C144.02 31.3646 143.877 32.3105 143.877 33.4916V39.9983H138.803Z"
        fill="#0F172B" />
    <path
        d="M128.06 40.5C126.57 40.5 125.254 40.3067 124.112 39.9199C122.971 39.5227 122.078 38.9321 121.433 38.1482C120.799 37.3538 120.487 36.3556 120.497 35.1536H125.079C125.101 35.6971 125.312 36.0734 125.714 36.2824C126.126 36.4915 126.681 36.596 127.378 36.596C127.801 36.596 128.15 36.5438 128.425 36.4392C128.7 36.3347 128.906 36.1988 129.043 36.0316C129.181 35.8539 129.249 35.6657 129.249 35.4672C129.249 35.2058 129.154 34.9968 128.964 34.84C128.774 34.6832 128.478 34.5264 128.076 34.3696L124.287 32.9115C123.166 32.4516 122.3 31.8715 121.686 31.1712C121.084 30.4604 120.783 29.619 120.783 28.6469C120.783 27.2776 121.422 26.1697 122.701 25.323C123.98 24.4764 125.73 24.053 127.949 24.053C130.032 24.053 131.633 24.5339 132.753 25.4955C133.874 26.4571 134.439 27.6801 134.45 29.1643H129.804C129.804 28.8298 129.662 28.5424 129.376 28.302C129.091 28.0511 128.615 27.9257 127.949 27.9257C127.4 27.9257 126.966 28.0145 126.649 28.1922C126.332 28.3699 126.173 28.6051 126.173 28.8978C126.173 29.295 126.506 29.6085 127.172 29.8385L131.485 31.5475C132.553 31.9656 133.393 32.4882 134.006 33.1153C134.619 33.7425 134.925 34.5264 134.925 35.4672C134.925 36.3243 134.624 37.1395 134.022 37.913C133.43 38.6761 132.616 39.298 131.58 39.7788C130.544 40.2596 129.371 40.5 128.06 40.5Z"
        fill="#0F172B" />
    <path
        d="M111.95 39.9983V30.9987C111.95 30.1834 111.749 29.5824 111.347 29.1957C110.945 28.7985 110.459 28.5999 109.888 28.5999C109.307 28.5999 108.773 28.7619 108.287 29.0859C107.801 29.4099 107.41 29.9326 107.114 30.6538C106.828 31.3646 106.686 32.3105 106.686 33.4916H105.148C105.148 31.2757 105.412 29.4727 105.941 28.0825C106.48 26.6923 107.209 25.6732 108.129 25.0251C109.059 24.3771 110.11 24.053 111.284 24.053C112.626 24.053 113.72 24.3509 114.566 24.9467C115.422 25.5425 116.051 26.363 116.452 27.4083C116.854 28.4535 117.055 29.6503 117.055 30.9987V39.9983H111.95ZM101.612 39.9983V24.5548H106.083L106.686 27.1104V39.9983H101.612Z"
        fill="#0F172B" />
    <path
        d="M92.1597 39.9983L91.5096 35.8748V30.0893C91.5096 29.3159 91.3669 28.7148 91.0815 28.2863C90.7961 27.8577 90.1883 27.6435 89.2582 27.6435C88.7085 27.6435 88.2593 27.7271 87.9105 27.8943C87.5722 28.0511 87.3186 28.2654 87.1494 28.5372C86.9909 28.7985 86.9116 29.0859 86.9116 29.3995H81.4257C81.4257 28.187 81.7164 27.1888 82.2978 26.4048C82.8791 25.6105 83.7512 25.0199 84.9139 24.6332C86.0766 24.2464 87.5247 24.053 89.2582 24.053C90.7697 24.053 92.0698 24.283 93.1585 24.7429C94.2578 25.2028 95.1034 25.8927 95.6953 26.8125C96.2873 27.7323 96.5832 28.8873 96.5832 30.2775V39.9983H92.1597ZM87.2446 40.5C85.8493 40.5 84.6708 40.2701 83.7089 39.8102C82.7576 39.3398 82.0388 38.7074 81.5526 37.913C81.0664 37.1186 80.8232 36.2406 80.8232 35.279C80.8232 34.3696 81.0769 33.5857 81.5843 32.9272C82.0917 32.2582 82.8421 31.7408 83.8357 31.375C84.8399 31.0092 86.0713 30.8262 87.53 30.8262C88.4178 30.8262 89.2 30.8733 89.8765 30.9674C90.5636 31.0614 91.2665 31.1764 91.9853 31.3123V34.1345C91.4567 34.0195 90.9071 33.9306 90.3363 33.8679C89.7761 33.8052 89.2265 33.7738 88.6874 33.7738C87.9369 33.7738 87.3397 33.8941 86.8958 34.1345C86.4624 34.3644 86.2457 34.7459 86.2457 35.279C86.2457 35.6657 86.4412 36.0055 86.8323 36.2981C87.2234 36.5803 87.8418 36.7214 88.6874 36.7214C89.4062 36.7214 89.9716 36.5803 90.3839 36.2981C90.7961 36.0159 91.0868 35.6605 91.2559 35.232C91.425 34.8034 91.5096 34.3801 91.5096 33.962H92.6987C92.6987 35.1536 92.5085 36.2459 92.1279 37.2388C91.7474 38.2318 91.1555 39.0262 90.3522 39.622C89.5488 40.2074 88.513 40.5 87.2446 40.5Z"
        fill="#0F172B" />
    <path d="M71.4502 39.9983V18.3616H76.5238V39.9983H71.4502Z" fill="#0F172B" />
    <path
        d="M52 39.9983V18.9575H60.1654C62.6176 18.9575 64.5625 19.5428 66.0001 20.7135C67.4376 21.8737 68.1564 23.5931 68.1564 25.8718C68.1564 28.14 67.4376 29.8646 66.0001 31.0458C64.5625 32.2164 62.6176 32.8018 60.1654 32.8018H57.1053V39.9983H52ZM57.1053 28.4117H60.1654C61.085 28.4117 61.7773 28.1609 62.2424 27.6591C62.7181 27.147 62.9559 26.5512 62.9559 25.8718C62.9559 25.1819 62.7181 24.5809 62.2424 24.0687C61.7773 23.5566 61.085 23.3005 60.1654 23.3005H57.1053V28.4117Z"
        fill="#0F172B" />
</svg>